<?xml version="1.0" encoding="UTF-8" standalone="no"?>
<!DOCTYPE svg PUBLIC "-//W3C//DTD SVG 1.1//EN" "http://www.w3.org/Graphics/SVG/1.1/DTD/svg11.dtd">
<svg version="1.1" xmlns:dc="http://purl.org/dc/elements/1.1/" xmlns:xl="http://www.w3.org/1999/xlink" xmlns="http://www.w3.org/2000/svg" viewBox="0 20 626 120" width="626" height="120">
  <defs/>
  <g id="Canvas_1" fill-opacity="1" stroke-dasharray="none" fill="none" stroke="none" stroke-opacity="1">
    <title>Canvas 1</title>
    <g id="Canvas_1_Layer_1">
      <title>Layer 1</title>
      <g id="Group_13">
        <g id="Graphic_12">
          <title>path863</title>
          <path d="M 84.62996 26.48617 C 77.20926 22.983492 68.38433 20.83956 60.0044 20.83956 C 34.71035 20.83956 19.580196 41.774547 21.207924 62.23882 C 21.945642 71.49491 26.49062 80.45038 34.00625 87.45376 C 36.698194 89.9758 39.70658 92.13718 42.955786 93.88358 C 40.49746 90.9548 38.87349 87.41786 38.25456 83.64452 C 36.573434 73.359975 43.36519 58.2318 60.710476 58.2318 C 79.36506 58.2318 99.90251 75.96671 101.63902 97.77391 C 102.7011 111.11415 97.64387 123.12334 89.09385 131.51316 C 106.77734 121.24246 118.66786 102.09737 118.66786 80.17349 C 118.66786 56.45178 104.74812 35.98158 84.62996 26.48617 Z" fill="#0053d6"/>
        </g>
        <g id="Graphic_11">
          <title>path865</title>
          <path d="M 97.45993 98.10816 C 96.72222 88.85206 92.17724 79.8966 84.6616 72.893215 C 81.96966 70.37118 78.96128 68.20979 75.71207 66.463394 C 78.1704 69.39218 79.79437 72.92911 80.4133 76.70245 C 82.09442 86.987 75.30267 102.11517 57.95738 102.11517 C 39.302794 102.11517 18.765344 84.38026 17.028838 62.57109 C 15.96676 49.230844 21.02399 37.221657 29.574008 28.83184 C 11.890519 39.10452 0 58.2496 0 80.17349 C 0 103.89519 13.91974 124.3654 34.037897 133.8608 C 41.458594 137.36348 50.283527 139.50742 58.663455 139.50742 C 83.95751 139.50742 99.08766 118.57243 97.45993 98.10816 Z" fill="#0053d6"/>
        </g>
      </g>
      <g id="Group_14">
        <g id="Graphic_10">
          <title>path867</title>
          <path d="M 173.1799 30.25384 L 148.38031 30.25384 L 148.38031 108.10125 L 173.1799 108.10125 C 200.53549 108.10125 213.10265 93.20125 213.10265 69.29172 C 213.10265 45.265417 200.53549 30.25384 173.1799 30.25384 Z M 172.84516 98.75956 L 159.39053 98.75956 L 159.39053 39.48395 L 172.84516 39.48395 C 194.41927 39.48395 201.87186 50.826316 201.87186 69.28653 C 201.87186 87.63517 194.41927 98.75956 172.84516 98.75956 Z" fill="#0053d6"/>
        </g>
        <g id="Graphic_9">
          <title>path869</title>
          <path d="M 245.96204 51.60479 C 229.4999 51.60479 218.2691 63.2819 218.2691 80.74048 C 218.2691 97.9759 229.6141 109.43244 245.84786 109.43244 C 258.86135 109.43244 267.8683 101.6477 270.8706 91.30437 L 259.8604 91.30437 C 257.63655 96.75369 252.74514 100.31132 245.84786 100.31132 C 237.28464 100.31132 229.72566 94.30928 229.05618 83.0759 L 272.31597 83.0759 C 272.4275 81.07522 272.4275 79.40669 272.4275 77.84715 C 272.4275 63.61405 262.19575 51.60479 245.96197 51.60479 Z M 229.28194 75.29116 C 230.50414 65.728905 237.62199 60.72332 245.85045 60.72332 C 254.52525 60.72332 261.08778 66.284216 261.53152 75.29116 Z" fill="#0053d6"/>
        </g>
        <g id="Graphic_8">
          <title>path871</title>
          <path d="M 305.89935 51.60479 C 289.4398 51.60479 278.20902 63.2819 278.20902 80.74048 C 278.20902 97.9759 289.5514 109.43244 305.78776 109.43244 C 318.79866 109.43244 327.8056 101.6477 330.81052 91.30437 L 319.8003 91.30437 C 317.57386 96.75369 312.68245 100.31132 305.78776 100.31132 C 297.22455 100.31132 289.66298 94.30928 288.9961 83.0759 L 332.2533 83.0759 C 332.3648 81.07522 332.3648 79.40669 332.3648 77.84715 C 332.3648 63.61405 322.13306 51.60479 305.8993 51.60479 Z M 289.22443 75.29116 C 290.44923 65.728905 297.56448 60.72332 305.79556 60.72332 C 314.47036 60.72332 321.0303 66.284216 321.47402 75.29116 Z" fill="#0053d6"/>
        </g>
        <g id="Graphic_7">
          <title>path873</title>
          <path d="M 369.50586 51.60479 C 359.60886 51.60479 353.38108 56.387216 349.93504 61.72495 L 348.8218 52.94117 L 338.9248 52.94117 L 338.9248 132.5609 L 349.9454 132.5609 L 349.9454 99.42386 C 353.7262 105.76064 360.6209 109.43244 369.40727 109.43244 C 385.64364 109.43244 396.76544 97.309 396.76544 80.6289 C 396.76544 63.94879 385.63066 51.60479 369.50586 51.60479 Z M 367.72835 99.87018 C 357.38503 99.87018 349.93504 92.08544 349.93504 80.51991 C 349.93504 69.06596 357.38503 61.16964 367.72835 61.16964 C 378.18066 61.16964 385.51908 69.06596 385.51908 80.51991 C 385.51908 92.08285 378.18066 99.86759 367.72835 99.86759 Z" fill="#0053d6"/>
        </g>
        <g id="Graphic_6">
          <title>path875</title>
          <path d="M 442.87445 82.85274 L 415.96 30.25384 L 403.0607 30.25384 L 403.0607 108.10125 L 414.0709 108.10125 L 414.0709 49.49253 L 438.64734 96.97945 L 447.099 96.97945 L 471.5638 49.49253 L 471.5638 108.10125 L 482.57404 108.10125 L 482.57404 30.25384 L 469.67213 30.25384 Z" fill="#0053d6"/>
        </g>
        <g id="Graphic_5">
          <title>path877</title>
          <rect x="491.13465" y="52.94117" width="11.010224" height="55.16008" fill="#0053d6"/>
        </g>
        <g id="Graphic_4">
          <title>path879</title>
          <path d="M 496.584 28.027406 C 492.46844 28.027406 489.35714 30.920734 489.35714 34.924686 C 489.35714 38.92864 492.47104 41.930953 496.584 41.930953 C 500.8085 41.930953 503.925 38.92864 503.925 34.924686 C 503.925 30.920734 500.8085 28.027406 496.584 28.027406 Z" fill="#0053d6"/>
        </g>
        <g id="Graphic_3">
          <title>path881</title>
          <path d="M 540.2849 51.60479 C 531.7217 51.60479 524.8296 55.831904 521.2694 62.61501 L 520.4909 52.94117 L 510.7055 52.94117 L 510.7055 108.10125 L 521.7287 108.10125 L 521.7287 79.62726 C 521.7287 67.618 528.2886 61.055465 537.29817 61.055465 C 546.1961 61.055465 550.7554 66.50478 550.7554 77.40342 L 550.7554 108.10125 L 561.654 108.10125 L 561.654 76.2928 C 561.6385 59.724275 553.519 51.60479 540.2849 51.60479 Z" fill="#0053d6"/>
        </g>
        <g id="Graphic_2">
          <title>path883</title>
          <path d="M 614.515 27.78608 L 614.515 61.372045 C 610.7342 55.03267 603.83954 51.363463 594.9442 51.363463 C 578.7078 51.363463 567.6976 63.484305 567.6976 80.167 C 567.6976 96.8497 578.7078 109.19111 594.8326 109.19111 C 604.7322 109.19111 610.9574 104.41128 614.515 99.07095 L 615.6282 107.85733 L 625.5252 107.85733 L 625.5252 27.78608 Z M 596.6101 99.62626 C 586.2694 99.62626 578.8168 91.72994 578.8168 80.27599 C 578.8168 68.71046 586.2694 60.92572 596.6101 60.92572 C 607.0624 60.92572 614.4034 68.71046 614.4034 80.27599 C 614.4034 91.72994 607.065 99.62626 596.6127 99.62626 Z" fill="#0053d6"/>
        </g>
      </g>
    </g>
  </g>
</svg>
