<?xml version="1.0" encoding="UTF-8" standalone="no"?>
<!DOCTYPE svg PUBLIC "-//W3C//DTD SVG 1.1//EN" "http://www.w3.org/Graphics/SVG/1.1/DTD/svg11.dtd">
<svg version="1.1" xmlns="http://www.w3.org/2000/svg" xmlns:dc="http://purl.org/dc/elements/1.1/" xmlns:xl="http://www.w3.org/1999/xlink" viewBox="0 0 975 180" width="975" height="180">
  <defs/>
  <g id="Canvas_1" stroke="none" stroke-opacity="1" stroke-dasharray="none" fill="none" fill-opacity="1">
    <title>Canvas 1</title>
    <rect fill="white" x="0" y="0" width="975" height="180"/>
    <g id="Canvas_1_Layer_1">
      <title>Layer 1</title>
      <g id="Graphic_2">
        <path d="M 962.1 144.1 L 962.1 141.4 L 963.8 141.4 C 964.7 141.4 966 141.5 966 142.6 C 966 143.7 965.3 144.1 964.2 144.1 Z M 962.1 146 L 963.3 146 L 966 150.7 L 968.9 150.7 L 965.9 145.8 C 967.4 145.9 968.6 144.8 968.7 143.3 L 968.7 142.9 C 968.7 140.3 966.9 139.5 963.9 139.5 L 959.6 139.5 L 959.6 150.7 L 962.1 150.7 Z M 974.7 145.1 C 974.7 138.5 969.6 134.7 963.9 134.7 C 958.2 134.7 953.1 138.5 953.1 145.1 C 953.1 151.7 958.2 155.5 963.9 155.5 C 969.6 155.5 974.7 151.7 974.7 145.1 Z M 971.5 145.1 C 971.7 149.3 968.4 152.9 964.2 153.1 L 963.9 153.1 C 959.5 153.3 955.8 149.8 955.6 145.4 C 955.4 141 958.9 137.3 963.3 137.1 C 967.7 136.9 971.4 140.4 971.6 144.8 C 971.5 144.9 971.5 145 971.5 145.1 Z M 578.2 34 L 578.2 152 L 611.5 152 L 611.5 34 Z M 316.2 33.8 L 316.2 151.9 L 349.8 151.9 L 349.8 60.2 L 376 60.3 C 384.6 60.3 390.6 62.4 394.7 66.8 C 400 72.4 402.1 81.5 402.1 98 L 402.1 151.9 L 434.7 151.9 L 434.7 86.7 C 434.7 40.1 405 33.8 376 33.8 Z M 631.9 34 L 631.9 152 L 685.9 152 C 714.7 152 724.1 147.2 734.2 136.5 C 741.4 129 746 112.4 746 94.3 C 746 77.7 742.1 62.9 735.2 53.7 C 723 37.2 705.2 34 678.6 34 Z M 664.9 59.6 L 679.2 59.6 C 700 59.6 713.4 68.9 713.4 93.1 C 713.4 117.3 700 126.7 679.2 126.7 L 664.9 126.7 Z M 530.2 34 L 502.4 127.5 L 475.8 34 L 439.8 34 L 477.8 152 L 525.8 152 L 564.2 34 Z M 761.6 152 L 794.9 152 L 794.9 34 L 761.6 34 Z M 855 34 L 808.5 151.9 L 841.3 151.9 L 848.7 131 L 903.7 131 L 910.7 151.8 L 946.4 151.8 L 899.5 34 Z M 876.6 55.5 L 896.8 110.7 L 855.8 110.7 Z" fill="black"/>
      </g>
      <g id="Graphic_3">
        <path d="M 101.3 53.6 L 101.3 37.4 C 102.9 37.3 104.5 37.2 106.1 37.2 C 150.5 35.8 179.6 75.4 179.6 75.4 C 179.6 75.4 148.2 119 114.5 119 C 110 119 105.6 118.3 101.4 116.9 L 101.4 67.7 C 118.7 69.8 122.2 77.4 132.5 94.7 L 155.6 75.3 C 155.6 75.3 138.7 53.2 110.3 53.2 C 107.3 53.1 104.3 53.3 101.3 53.6 Z M 101.3 0 L 101.3 24.2 L 106.1 23.9 C 167.8 21.8 208.1 74.5 208.1 74.5 C 208.1 74.5 161.9 130.7 113.8 130.7 C 109.6 130.7 105.5 130.3 101.4 129.6 L 101.4 144.6 C 104.8 145 108.3 145.3 111.7 145.3 C 156.5 145.3 188.9 122.4 220.3 95.4 C 225.5 99.6 246.8 109.7 251.2 114.1 C 221.4 139.1 151.9 159.2 112.5 159.2 C 108.7 159.2 105.1 159 101.5 158.6 L 101.5 179.7 L 271.7 179.7 L 271.7 14210855e-21 Z M 101.3 116.9 L 101.3 129.7 C 59.9 122.3 48.4 79.2 48.4 79.2 C 48.4 79.2 68.3 57.2 101.3 53.6 L 101.3 67.6 L 101.2 67.6 C 83.9 65.5 70.3 81.7 70.3 81.7 C 70.3 81.7 78 109 101.3 116.9 Z M 27.8 77.4 C 27.8 77.4 52.3 41.2 101.4 37.4 L 101.4 24.2 C 47 28.6 2842171e-20 74.6 2842171e-20 74.6 C 2842171e-20 74.6 26.6 151.6 101.3 158.6 L 101.3 144.6 C 46.5 137.8 27.8 77.4 27.8 77.4 Z" fill="#76b900"/>
      </g>
    </g>
  </g>
</svg>
