<?xml version="1.0" encoding="UTF-8" standalone="no"?>
<!DOCTYPE svg PUBLIC "-//W3C//DTD SVG 1.1//EN" "http://www.w3.org/Graphics/SVG/1.1/DTD/svg11.dtd">
<svg version="1.1" xmlns="http://www.w3.org/2000/svg" xmlns:dc="http://purl.org/dc/elements/1.1/" xmlns:xl="http://www.w3.org/1999/xlink" viewBox="-1 0 1002 190" width="1002" height="190">
  <defs/>
  <g id="Canvas_1" stroke="none" stroke-opacity="1" stroke-dasharray="none" fill="none" fill-opacity="1">
    <title>Canvas 1</title>
    <rect fill="white" x="-1" y="0" width="1002" height="190"/>
    <g id="Canvas_1_Layer_1">
      <title>Layer 1</title>
      <g id="Group_2">
        <g id="Graphic_9">
          <path d="M 918.945 58.881 L 876.208 58.881 L 893.02 82.992 L 914.683 82.992 L 896.464 186.713 L 934.417 186.713 L 952.661 82.992 L 1e3 82.992 L 925.267 22.869 Z" fill="#265eac"/>
        </g>
        <g id="Graphic_8">
          <path d="M 177.143 14210855e-21 L 4.709 14210855e-21 L 0 27.159 L 66.949 27.159 L 38.9 186.72 L 76.854 186.72 L 104.909 27.159 L 172.434 27.159 Z" fill="#265eac"/>
        </g>
        <g id="Graphic_7">
          <path d="M 205.211 56.004 C 156.968 56.004 126.085 86.369 119.955 121.646 C 113.159 160.815 137.226 189.487 185.915 189.487 C 207.669 189.487 228.021 185.395 244.558 176.205 L 249.693 146.99 C 233.54 158.563 212.982 165.03 195.567 165.03 C 171.295 165.03 151.999 154.925 155.034 131.744 L 255.329 131.744 C 256.537 128.991 257.985 124.172 259.029 118.16 C 263.889 90.172 253.969 56.004 205.211 56.004 M 224.885 109.208 L 158.877 109.208 C 162.845 96.133 175.668 78.056 199.013 78.056 C 224.417 78.056 227.102 97.369 224.885 109.208" fill="#265eac"/>
        </g>
        <g id="Graphic_6">
          <path d="M 372.833 56.011 C 349.144 56.011 331.399 65.83 323.032 75.756 L 322.147 75.756 L 288.738 56.011 C 287.509 67.09 285.869 82.134 283.301 96.9 L 267.698 186.713 L 305.651 186.713 L 318.851 111.499 C 319.483 107.807 320.739 103.894 322.372 101.237 C 328.042 91.369 339.938 82.281 355.019 82.281 C 375.729 82.281 381.365 96.254 378.186 114.589 L 365.494 186.713 L 403.454 186.713 L 416.819 110.786 C 423.836 70.364 398.98 56.011 372.833 56.011" fill="#265eac"/>
        </g>
        <g id="Graphic_5">
          <path d="M 828.128 56.011 C 804.426 56.011 786.703 65.83 778.334 75.756 L 777.45 75.756 L 744.04 56.011 C 742.811 67.09 741.163 82.134 738.596 96.9 L 723.008 186.713 L 760.947 186.713 L 774.154 111.499 C 774.779 107.807 776.036 103.894 777.662 101.237 C 783.338 91.369 795.233 82.281 810.303 82.281 C 831.038 82.281 836.668 96.254 833.491 114.589 L 820.805 186.713 L 858.758 186.713 L 872.103 110.786 C 879.123 70.364 854.274 56.011 828.128 56.011" fill="#265eac"/>
        </g>
        <g id="Graphic_4">
          <path d="M 660.507 56.004 C 612.264 56.004 581.389 86.369 575.258 121.646 C 568.462 160.815 592.529 189.487 641.211 189.487 C 662.964 189.487 683.324 185.395 699.854 176.205 L 704.996 146.99 C 688.845 158.563 668.292 165.03 650.856 165.03 C 626.597 165.03 607.323 154.925 610.335 131.744 L 710.644 131.744 C 711.832 128.991 713.287 124.172 714.35 118.16 C 719.183 90.172 709.258 56.004 660.507 56.004 M 680.18 109.208 L 614.18 109.208 C 618.14 96.133 630.963 78.056 654.301 78.056 C 679.72 78.056 682.404 97.369 680.18 109.208" fill="#265eac"/>
        </g>
        <g id="Graphic_3">
          <path d="M 432.746 121.082 C 425.861 160.76 453.642 189.473 500.662 189.473 C 519.361 189.473 541.683 184.097 550.141 180.961 L 556.278 146.796 C 543.092 160.979 525.216 163.924 512.531 163.924 C 486.701 163.924 467.144 148.884 471.695 122.675 C 475.642 99.24 497.835 81.23 526.768 81.23 C 538.547 81.23 554.535 85.175 564.612 98.437 L 570.495 63.685 C 562.333 60.552 549.27 56.08 529.932 56.08 C 477.172 56.079 439.398 82.813 432.746 121.082" fill="#265eac"/>
        </g>
      </g>
    </g>
  </g>
</svg>
