<?xml version="1.0" encoding="UTF-8" standalone="no"?>
<!DOCTYPE svg PUBLIC "-//W3C//DTD SVG 1.1//EN" "http://www.w3.org/Graphics/SVG/1.1/DTD/svg11.dtd">
<svg version="1.1" xmlns="http://www.w3.org/2000/svg" xmlns:dc="http://purl.org/dc/elements/1.1/" xmlns:xl="http://www.w3.org/1999/xlink" viewBox="1 1 349 98" width="349" height="98">
  <defs/>
  <g id="Canvas_1" stroke="none" stroke-opacity="1" stroke-dasharray="none" fill="none" fill-opacity="1">
    <title>Canvas 1</title>
    <rect fill="white" x="1" y="1" width="349" height="98"/>
    <g id="Canvas_1_Layer_1">
      <title>Layer 1</title>
      <g id="Group_2">
        <g id="Graphic_7">
          <path d="M 60.666 3.3304 L 60.666 28.0964 L 60.666 28.54047 C 60.666 37.86597 59.74692 49.89047 52.5645 60.44547 C 51.0667 62.59747 49.3988 64.61287 47.3904 66.55997 L 47.35633 66.59412 C 43.44173 70.35162 38.30173 73.90422 30.94933 78.00312 C 23.59673 73.90402 18.42233 70.35142 14.54233 66.59412 L 14.50829 66.55997 C 12.50029 64.61197 10.79829 62.63097 9.33419 60.44497 C 2.15179 49.92397 1.23269 37.86597 1.23269 28.53997 L 1.23269 25.46567 L 1.23269 3.33067 L 2.42409 3.19403 C 2.59429 3.15963 18.52509 1.17843 30.94909 1.17843 C 43.37409 1.17843 59.30409 3.15963 59.47409 3.19383 L 60.66549 3.33047 Z" fill="#bf5700"/>
        </g>
        <g id="Graphic_6">
          <path d="M 30.949 3.9453 C 21.69 3.9453 10.424 5.0726 5.42 5.6191 L 3.9902 25.4651 L 30.9492 25.4651 L 57.9082 25.4651 L 56.5142 5.6191 C 51.4762 5.0727 40.2082 3.9454 30.9492 3.9454 Z M 30.949 27.1393 L 3.955 28.6433 C 3.9551 37.5583 4.8402 49.0363 11.58 58.9083 C 12.976 60.9243 14.576 62.8353 16.482 64.6803 C 22.405 70.1453 29.077 73.1523 30.949 73.9383 C 32.821 73.1523 39.493 70.1453 45.416 64.6803 C 47.322 62.8353 48.923 60.9583 50.318 58.9083 C 57.024 49.0363 57.908 37.5583 57.908 28.6433 Z" fill="white"/>
        </g>
        <g id="Graphic_5">
          <path d="M 27.715 7.4631 C 26.3194 7.4631 24.8207 7.70384 23.2549 7.9088 C 21.5189 8.18207 19.7168 8.4195 17.9127 8.4195 L 17.06154 8.4195 L 17.06154 11.9387 L 15.80184 11.9387 L 15.80184 13.9877 L 17.06154 13.9877 L 17.06154 16.7888 L 15.80184 16.7888 L 15.80184 18.8378 L 17.06154 18.8378 L 17.06154 22.6634 L 17.9127 22.6634 C 19.853 22.6634 21.7572 22.35788 23.5613 22.08461 C 25.1271 21.84549 26.5917 21.60486 27.8171 21.60486 C 28.8383 21.60486 29.5876 21.74313 30.1663 22.05056 L 31.8005 22.05056 C 32.37918 21.74312 33.1285 21.60486 34.1497 21.60486 C 35.4092 21.60486 36.8706 21.84549 38.4024 22.08461 C 40.2406 22.35789 42.1479 22.6634 44.0541 22.6634 L 44.90526 22.6634 L 44.90526 18.8378 L 46.16496 18.8378 L 46.16496 16.7888 L 44.90526 16.7888 L 44.90526 13.9877 L 46.16496 13.9877 L 46.16496 11.9728 L 44.90526 11.9728 L 44.90526 8.4196 L 44.0541 8.4196 C 42.25 8.4196 40.4448 8.14802 38.7088 7.9089 C 37.1088 7.6693 35.6128 7.4627 34.2508 7.4627 C 32.9573 7.4627 31.8674 7.66872 30.9823 8.07863 C 30.0973 7.66873 29.0073 7.46273 27.7133 7.46273 Z M 30.9494 28.5411 C 30.91536 28.5411 30.88131 28.57505 30.88131 28.6092 L 27.91931 37.7275 L 18.38941 37.7275 C 18.35537 37.7275 18.32131 37.7305 18.28727 37.76465 C 18.28727 37.83298 18.287284 37.86679 18.35536 37.86679 L 26.08086 43.50299 L 23.11886 52.68939 C 23.11886 52.68939 23.118868 52.72343 23.15291 52.72343 L 23.18695 52.72343 L 30.98365 47.05313 L 38.77725 52.72343 L 38.81129 52.72343 C 38.84533 52.68926 38.84533 52.65534 38.81129 52.65534 L 35.84929 43.50304 L 43.57789 37.86684 C 43.61193 37.86684 43.64597 37.83302 43.61193 37.7647 C 43.61193 37.73053 43.57787 37.72756 43.54384 37.72756 L 33.97984 37.72756 L 31.01784 28.60926 C 31.01784 28.57511 30.98378 28.54117 30.94974 28.54117 Z M 13.3504 30.3858 L 12.80566 30.86245 C 11.47806 31.85307 10.55856 33.28985 10.25216 34.92945 C 10.08196 35.74927 10.08196 36.56725 10.25216 37.35295 C 9.60606 36.83895 8.85676 36.46395 8.07386 36.19095 L 7.35886 35.98695 L 7.18866 36.70195 C 6.81422 38.34155 7.08668 40.01525 7.90364 41.44985 C 8.7206 42.88455 10.08294 43.94605 11.64874 44.42425 L 12.26158 44.59448 C 12.32966 45.10687 12.46589 45.61728 12.63609 46.12968 C 11.75105 45.54897 10.72929 45.20755 9.67409 45.13924 L 8.95911 45.07115 L 8.95911 45.82327 C 8.92507 47.49707 9.53811 49.06907 10.62741 50.29887 C 11.75071 51.52857 13.24931 52.27927 14.91731 52.41597 L 15.56419 52.48406 C 15.73439 52.99645 15.9728 53.47625 16.24512 53.88616 C 15.53028 53.61288 14.74692 53.47451 13.96402 53.47451 C 13.6917 53.47451 13.41922 53.47441 13.1469 53.50855 L 12.43192 53.61068 L 12.5681 54.32875 C 12.87446 55.96835 13.794 57.40515 15.1556 58.39575 C 16.2789 59.21557 17.5732 59.62455 18.9688 59.62455 C 19.24112 59.62455 19.5136 59.624655 19.78592 59.59051 L 20.42971 59.52241 C 20.70203 59.96648 21.00857 60.37543 21.38301 60.75121 C 20.36181 60.58041 19.27501 60.68199 18.28791 61.02358 L 17.60698 61.265 L 17.87935 61.94593 C 18.52611 63.48313 19.71505 64.71393 21.21285 65.36293 C 22.06385 65.73868 22.94935 65.94482 23.83445 65.94482 C 24.54929 65.94482 25.29855 65.80633 25.97935 65.56721 L 26.49005 65.39698 C 27.34105 66.11433 28.29475 66.83318 29.62235 67.75548 C 29.00963 68.16539 28.36245 68.574 27.61365 69.08638 L 28.90745 69.87254 C 29.62229 69.3943 30.26945 68.9825 30.84815 68.57254 C 31.42683 68.9483 32.07395 69.39426 32.78885 69.87254 L 34.08265 69.08638 C 33.33377 68.60815 32.68665 68.16538 32.07395 67.75548 C 33.40155 66.83318 34.35525 66.11428 35.20625 65.39698 L 35.71385 65.56721 C 36.39465 65.80633 37.14395 65.94482 37.85875 65.94482 C 38.77783 65.94482 39.66335 65.73869 40.48035 65.36293 C 41.97815 64.67974 43.17015 63.48303 43.81695 61.94593 L 44.08932 61.265 L 43.40839 61.02358 C 42.42123 60.68199 41.33139 60.58041 40.31019 60.75121 C 40.68463 60.37546 40.99117 59.96651 41.26349 59.52241 L 41.91037 59.59051 C 42.18269 59.62466 42.45517 59.62455 42.72749 59.62455 C 44.12309 59.62455 45.41739 59.2156 46.54069 58.39575 C 47.86829 57.40513 48.78779 55.96835 49.12819 54.32875 L 49.26438 53.61068 L 48.5494 53.50855 C 48.27708 53.4744 48.00461 53.47451 47.73228 53.47451 C 46.94936 53.47451 46.20008 53.61289 45.45118 53.88616 C 45.7235 53.44209 45.96191 52.96229 46.13211 52.48406 L 46.77899 52.41597 C 48.44699 52.27934 49.94549 51.52863 51.06889 50.29887 C 52.19219 49.06917 52.76819 47.46297 52.73409 45.82327 L 52.73409 45.07115 L 51.98507 45.13924 C 50.92987 45.20756 49.91117 45.58314 49.02607 46.12968 C 49.23031 45.65145 49.33252 45.10688 49.40058 44.59448 L 50.1496 44.42425 C 51.7495 43.94602 53.0747 42.88455 53.8916 41.44985 C 54.70856 40.01515 54.981 38.34155 54.60658 36.70195 L 54.43635 35.98697 L 53.72137 36.19125 C 52.90441 36.43037 52.19227 36.83954 51.54547 37.35195 C 51.68163 36.56629 51.68163 35.74825 51.54547 34.92845 C 51.2391 33.28885 50.31957 31.85205 48.99197 30.86145 L 48.41318 30.41885 L 48.03867 31.03169 C 47.15362 32.43219 46.84707 34.10589 47.15346 35.74559 C 47.45982 37.38519 48.37936 38.78789 49.70696 39.77859 C 49.46868 40.32514 49.29838 40.94049 49.19626 41.52119 C 48.78778 40.42809 48.14066 39.47159 47.22156 38.72009 L 46.63956 38.23909 L 46.19756 38.85509 C 45.24444 40.22149 44.80166 41.86129 45.03996 43.50089 C 45.2442 45.14049 46.09566 46.64209 47.35516 47.70099 L 47.3892 47.73503 C 47.01476 48.24743 46.70824 48.79463 46.504 49.40953 C 46.3338 48.28223 45.89102 47.19033 45.1421 46.23393 L 44.6995 45.65204 L 44.15476 46.16274 C 42.92936 47.29004 42.18006 48.82844 42.04386 50.46804 C 41.9077 52.10764 42.41857 53.74774 43.43976 55.04574 L 43.4738 55.07978 C 42.99724 55.48969 42.58852 56.00353 42.2481 56.51588 C 42.31618 55.35448 42.11182 54.19188 41.56717 53.13288 L 41.2267 52.4829 L 40.57982 52.86051 C 39.15012 53.71449 38.09432 55.04661 37.61782 56.65201 C 37.14126 58.25751 37.31155 59.93101 38.06043 61.43401 L 38.06043 61.46805 C 37.51579 61.77548 37.00493 62.18465 36.59643 62.62875 C 36.90279 61.50145 36.93684 60.33905 36.63047 59.17765 L 36.46024 58.46267 L 35.77931 58.70099 C 34.21351 59.24754 32.92231 60.33969 32.10541 61.80849 C 31.35653 63.20899 31.15218 64.84889 31.52662 66.42029 C 31.32238 66.55692 31.08398 66.72936 30.87974 66.86599 C 30.64146 66.69519 30.4371 66.55692 30.23286 66.42029 C 30.6073 64.84899 30.40295 63.20909 29.65407 61.80849 C 28.87117 60.33969 27.57697 59.24749 25.97707 58.70099 L 25.29614 58.46267 L 25.12591 59.17765 C 24.81955 60.30495 24.8536 61.50145 25.15995 62.62875 C 24.71743 62.18468 24.24058 61.77551 23.66195 61.46805 L 23.696 61.43401 C 24.44488 59.93101 24.58112 58.25751 24.13861 56.65201 C 23.66205 55.04651 22.60621 53.71441 21.17661 52.86051 L 20.52973 52.4829 L 20.18926 53.13288 C 19.64462 54.19178 19.44335 55.35448 19.51142 56.51588 C 19.17102 55.96933 18.7623 55.48968 18.28572 55.07978 L 18.31977 55.04574 C 19.34097 53.74764 19.85187 52.10774 19.71567 50.43394 C 19.57951 48.76014 18.83022 47.25584 17.60477 46.12864 L 17.06001 45.61793 L 16.61741 46.19982 C 15.86853 47.12212 15.42571 48.21402 15.25551 49.37542 C 15.04851 48.79542 14.74251 48.21342 14.36751 47.70142 L 14.40156 47.66738 C 15.69506 46.60848 16.51246 45.10688 16.71676 43.46728 C 16.921 41.82768 16.5123 40.15368 15.55916 38.82148 L 15.11656 38.20555 L 14.53777 38.6853 C 13.61869 39.43681 12.93747 40.3933 12.56307 41.4864 C 12.49499 40.87153 12.32469 40.2904 12.05237 39.7438 C 13.37997 38.75318 14.29947 37.3163 14.60587 35.7108 C 14.91223 34.0712 14.605698 32.3974 13.72066 30.9969 L 13.34615 30.38406 Z" fill="#bf5700"/>
        </g>
        <g id="Graphic_4">
          <path d="M 27.681 9.1376 C 26.4215 9.1376 24.991 9.34109 23.4592 9.58021 C 22.0976 9.78517 20.7383 9.95748 19.3086 10.05996 L 18.93409 20.88996 C 20.36379 20.82164 21.82519 20.61528 23.25489 20.37617 C 24.85479 20.13705 26.38749 19.89642 27.78309 19.89642 C 28.53197 19.89642 29.17909 19.96715 29.75779 20.10379 L 30.06421 11.05049 L 30.06421 9.54629 C 29.45221 9.27309 28.66921 9.13789 27.68121 9.13789 Z M 34.2179 9.1376 C 33.23074 9.1376 32.4814 9.27288 31.8346 9.54616 L 31.8346 11.05036 L 32.14102 20.10366 C 32.7197 19.96703 33.36682 19.89629 34.11572 19.89629 C 35.51132 19.89629 37.04092 20.13692 38.64082 20.37604 C 40.07052 20.61516 41.53502 20.82152 42.96472 20.88983 L 42.59072 10.05983 C 41.16072 9.95723 39.76472 9.78493 38.43672 9.58003 C 36.90472 9.34093 35.47772 9.13743 34.21772 9.13743 Z M 13.0099 32.4686 C 12.26102 33.2201 11.7842 34.1428 11.5799 35.1676 C 11.4097 36.1924 11.51189 37.2507 11.92037 38.173 C 12.66925 37.4215 13.14607 36.4988 13.35037 35.474 C 13.52057 34.4492 13.41838 33.4251 13.00991 32.4686 Z M 48.7869 32.4686 C 48.37842 33.42506 48.2422 34.4832 48.44644 35.508 C 48.65068 36.5328 49.16156 37.4555 49.87644 38.207 C 50.28492 37.25054 50.42114 36.1924 50.21691 35.1676 C 50.01267 34.1428 49.50179 33.186 48.78691 32.4686 Z M 30.9499 34.9973 L 29.1795 39.4357 L 24.3789 39.77926 L 28.09 42.85276 L 26.8984 47.49856 L 30.9499 44.93576 L 35.0014 47.49856 L 33.8098 42.85276 L 37.4837 39.77926 L 32.7203 39.46974 L 30.9499 34.99724 Z M 8.4139 37.7983 C 8.345821 38.8231 8.58423 39.8815 9.09483 40.7696 C 9.60543 41.65774 10.38873 42.3745 11.30783 42.8186 C 11.40995 41.7938 11.17154 40.7696 10.6269 39.8473 C 10.1163 38.95916 9.333 38.2424 8.4139 37.7983 Z M 53.4139 37.7983 C 52.46078 38.24237 51.7146 38.9591 51.204 39.8473 C 50.69341 40.7696 50.45499 41.7939 50.52307 42.8186 C 51.44215 42.37453 52.22237 41.6578 52.73297 40.7696 C 53.24357 39.8473 53.48198 38.823 53.4139 37.7983 Z M 14.9169 40.358 C 14.2361 41.14366 13.7933 42.1003 13.6572 43.1251 C 13.52104 44.1499 13.69134 45.2082 14.1679 46.1305 C 14.8487 45.34483 15.2915 44.3913 15.4276 43.3665 C 15.56376 42.3076 15.39346 41.2803 14.9169 40.358 Z M 46.9149 40.358 C 46.43834 41.2803 46.26804 42.3417 46.4042 43.3665 C 46.54036 44.3913 46.98312 45.3448 47.6639 46.1305 C 48.14046 45.2082 48.31076 44.1499 48.1746 43.1251 C 48.03844 42.1003 47.59568 41.1437 46.9149 40.358 Z M 10.3889 46.6102 C 10.5591 47.635 11.00187 48.5916 11.6827 49.3773 C 12.3635 50.16296 13.2831 50.7106 14.2702 50.9156 C 14.1 49.8908 13.65723 48.9 12.9764 48.1485 C 12.2956 47.39699 11.376 46.8493 10.3889 46.6102 Z M 51.4089 46.6102 C 50.42174 46.84932 49.5362 47.36282 48.8214 48.1485 C 48.10657 48.93416 47.6638 49.8908 47.5276 50.9156 C 48.51476 50.67648 49.4343 50.16298 50.1151 49.3773 C 50.82994 48.62579 51.2727 47.6692 51.4089 46.6102 Z M 44.5315 47.7709 C 43.88474 48.59072 43.476 49.5471 43.408 50.606 C 43.33992 51.6649 43.57832 52.6892 44.05488 53.5773 C 44.70164 52.75748 45.11038 51.7669 45.17838 50.7422 C 45.2805 49.6833 45.0421 48.659 44.5315 47.7709 Z M 17.2665 47.80494 C 16.7559 48.69308 16.55153 49.71734 16.58557 50.77624 C 16.68769 51.83514 17.06235 52.79154 17.70907 53.61134 C 18.21967 52.7232 18.45808 51.69894 18.39 50.64004 C 18.28788 49.58114 17.91322 48.62474 17.2665 47.80494 Z M 21.1107 54.56784 C 20.80434 55.55846 20.77029 56.61974 21.07666 57.61034 C 21.38302 58.60096 21.96202 59.48694 22.74496 60.13594 C 23.05132 59.14532 23.08537 58.08714 22.77902 57.09654 C 22.47266 56.10592 21.89366 55.21684 21.11072 54.56784 Z M 40.6847 54.56784 C 39.90178 55.21687 39.3228 56.10594 39.0164 57.09654 C 38.71004 58.08716 38.74409 59.14534 39.05044 60.13594 C 39.83336 59.48691 40.41234 58.60094 40.71874 57.61034 C 41.0251 56.61972 40.99105 55.55844 40.6847 54.56784 Z M 14.1347 54.87736 C 14.50914 55.83382 15.12221 56.68596 15.9732 57.30086 C 16.8242 57.91573 17.8119 58.22299 18.7991 58.2913 C 18.4587 57.30068 17.84563 56.4827 16.9946 55.8678 C 16.1436 55.25293 15.1559 54.91152 14.1347 54.87736 Z M 47.6307 54.87736 C 46.6095 54.91151 45.6218 55.25294 44.7708 55.8678 C 43.95384 56.48267 43.3067 57.3007 42.9663 58.2913 C 43.9875 58.25715 44.9752 57.91572 45.8262 57.30086 C 46.6772 56.68599 47.2903 55.83386 47.6307 54.87736 Z M 35.5137 60.37746 C 34.62866 60.85569 33.8794 61.60626 33.3688 62.52856 C 32.8582 63.45086 32.65385 64.47516 32.79001 65.49986 C 33.70909 65.02163 34.45841 64.27106 34.93491 63.34876 C 35.41147 62.42646 35.61582 61.40216 35.5137 60.37746 Z M 26.2871 60.4115 C 26.18498 61.4363 26.38933 62.4606 26.86589 63.3488 C 27.34245 64.2711 28.09179 65.0217 29.01079 65.4999 C 29.11291 64.4751 28.90856 63.4509 28.432 62.5286 C 27.95544 61.64046 27.2061 60.8898 26.2871 60.4115 Z M 20.3135 62.0426 C 20.05926 62.05 19.8043 62.07727 19.549 62.11998 C 20.09364 63.00812 20.8739 63.72498 21.827 64.13488 C 22.74608 64.54479 23.8019 64.68019 24.8231 64.50939 C 24.27846 63.62125 23.4951 62.90439 22.542 62.49449 C 21.82716 62.16144 21.0762 62.02018 20.3135 62.0426 Z M 41.5155 62.0488 C 40.74482 62.03438 39.9794 62.18707 39.2901 62.4945 C 38.33698 62.93857 37.5536 63.6213 37.009 64.5094 C 37.31536 64.54355 37.6219 64.57749 37.92826 64.57749 C 38.6431 64.57749 39.35836 64.44233 40.00506 64.13489 C 40.95818 63.69082 41.74156 63.00809 42.28616 62.11999 C 42.03086 62.0773 41.77237 62.05361 41.51547 62.04881 Z" fill="white"/>
        </g>
        <g id="Graphic_3">
          <path d="M 329.27 4.2534 C 317.05 6.8154 308.232 12.4516 308.232 22.0844 C 308.232 29.941 313.4423 34.0044 319.774 36.7364 L 330.427 41.4163 C 335.7032 43.705 339.5824 47.1565 339.5824 53.1683 C 339.5824 59.6244 335.192 64.3723 327.6354 64.3723 C 322.6996 64.3723 317.8666 62.0834 315.2454 58.8041 L 312.1812 51.2891 L 306.0219 51.2891 L 307.9595 63.2111 C 312.623 66.9003 318.0695 69.2219 326.1715 69.2219 C 342.7145 65.7718 348.3325 57.7449 348.3325 49.4439 C 348.3325 40.4258 342.274 36.0179 335.3295 33.0119 L 325.2175 28.6075 C 320.3838 26.4896 316.9473 23.4825 316.9473 18.6319 C 316.9473 12.7223 321.0652 8.9317 328.0433 8.9317 C 333.3195 8.9317 336.1437 10.8768 338.4243 13.268 L 340.9778 21.2968 L 345.3698 21.2968 L 345.3698 9.3748 C 340.9798 6.0966 334.8198 4.2534 329.2698 4.2534 Z M 275.69 4.97147 L 270.4159 6.47257 L 248.5949 63.68957 L 244.3731 64.27146 L 240.1544 63.62148 L 220.6144 34.75648 L 238.6564 9.85648 L 245.5307 8.90008 L 245.0881 5.82348 L 234.8091 6.09895 L 224.5301 5.82348 L 224.08752 8.90008 L 231.74492 10.06078 L 217.78892 30.65878 L 205.36492 9.99278 L 212.85202 8.83208 L 212.4094 5.75548 L 199.9174 6.09904 L 187.3234 5.75548 L 186.8808 8.83208 L 193.7582 9.78848 L 211.9672 37.42148 L 192.9752 63.65548 L 186.0978 64.61188 L 186.5404 67.79058 L 196.3768 67.51511 L 206.6588 67.79058 L 207.1014 64.61188 L 199.8836 63.55338 L 214.8946 41.55638 L 228.5786 63.48538 L 221.0914 64.64608 L 221.534 67.82478 L 234.128 67.54931 L 244.407 67.75669 L 251.6249 67.54931 L 262.1759 67.82478 L 262.61852 64.74818 L 254.96112 63.58748 L 260.67782 47.08748 L 282.39682 47.08748 L 288.38902 63.58748 L 280.89882 64.74818 L 281.34143 67.82478 L 292.94843 67.54931 L 305.10343 67.82478 L 305.54604 64.74818 L 298.66864 63.79178 L 275.69064 4.97178 Z M 76.8 5.75454 L 76.8 21.36654 L 80.2387 21.36654 L 84.2871 10.16254 L 97.4631 9.99231 L 97.4631 63.48531 L 86.9091 64.64601 L 87.3517 67.71951 L 102.1247 67.44714 L 116.3867 67.71951 L 116.8293 64.64601 L 106.7203 63.48531 L 106.7203 9.99231 L 119.8933 10.16254 L 123.9448 21.36654 L 127.3835 21.36654 L 127.3835 5.75454 L 102.0555 6.03001 L 76.7995 5.75454 Z M 132.658 5.75454 L 132.21539 8.83114 L 140.14819 9.99184 L 140.14819 63.48484 L 132.21539 64.64554 L 132.658 67.71904 L 144.813 67.44667 L 179.735 67.71904 L 182.7992 51.39204 L 179.4626 51.39204 L 173.5756 63.31404 L 149.3716 63.58641 L 149.3716 37.07941 L 161.6966 37.45392 L 165.2003 46.71152 L 168.2985 46.71152 L 167.4133 34.78952 L 168.2985 23.75852 L 165.2003 23.75852 L 161.6966 33.01302 L 149.3716 33.39063 L 149.3716 9.88963 L 172.6906 10.162 L 177.6273 21.639 L 180.6203 21.639 L 179.7351 5.755 L 144.8131 6.03047 L 132.6581 5.755 Z M 27.548 10.75594 C 26.58265 10.74634 25.5553 10.86221 24.5086 11.01593 L 24.5086 12.41493 C 25.9723 12.20997 27.3006 12.07413 28.458 12.1766 L 28.49204 10.8116 C 28.18568 10.77744 27.86981 10.75909 27.54802 10.75589 Z M 35.029 10.78999 C 34.46734 10.7601 33.9224 10.76042 33.3948 10.81166 L 33.42884 12.17666 C 34.416 12.10834 35.53684 12.176097 36.76234 12.34689 L 36.76234 10.94789 C 36.16664 10.87957 35.59074 10.81993 35.02904 10.79004 Z M 37.7837 11.04998 L 37.7837 12.45208 C 38.02198 12.48624 38.22635 12.52006 38.46463 12.55422 C 39.34967 12.69086 40.23523 12.82625 41.15433 12.92873 L 41.12028 11.52973 C 40.30332 11.42725 39.48588 11.32281 38.66888 11.18617 C 38.36252 11.15201 38.09003 11.1183 37.78367 11.04998 Z M 23.4877 11.15212 C 23.38558 11.18628 23.31745 11.18617 23.21533 11.18617 C 22.39837 11.32281 21.58093 11.42725 20.76393 11.52973 L 20.72987 12.92873 C 21.64895 12.82625 22.53447 12.69085 23.41957 12.55422 L 23.48767 12.55422 L 23.48767 11.15212 Z M 27.1864 13.90062 C 25.953 13.93745 24.6365 14.12589 23.2834 14.33084 L 23.2834 15.72984 C 23.35148 15.72984 23.38555 15.729959 23.45363 15.69578 C 25.29183 15.4225 26.96073 15.18474 28.35633 15.28722 L 28.39037 13.91912 C 27.99892 13.89351 27.59751 13.88828 27.18637 13.90056 Z M 33.5314 13.91919 L 33.56544 15.28729 C 34.45048 15.21897 35.43514 15.286841 36.49034 15.42348 L 36.49034 14.05538 C 35.43514 13.9529 34.45044 13.88503 33.53144 13.91919 Z M 37.5118 14.15752 L 37.5118 15.55962 C 37.81816 15.59377 38.15874 15.66166 38.4651 15.69581 C 39.38418 15.83244 40.3038 15.96784 41.2569 16.07032 L 41.22285 14.67132 C 40.37185 14.56884 39.52035 14.43333 38.66935 14.33085 C 38.29491 14.26253 37.88621 14.22584 37.51175 14.15752 Z M 22.2278 14.46703 C 21.7172 14.53535 21.1723 14.60299 20.6617 14.67131 L 20.62765 16.07031 L 22.26185 15.86603 L 22.26185 14.46703 L 22.22781 14.46703 Z M 271.1678 16.34583 L 280.7658 42.81883 L 262.0428 42.81883 L 271.1673 16.34583 Z M 33.6378 17.02676 L 33.67184 18.39486 C 34.79514 18.32654 36.12034 18.46227 37.51604 18.66723 L 37.51604 17.30223 C 36.15404 17.09823 34.82904 16.95923 33.63804 17.02723 Z M 28.2584 17.06082 C 27.101 16.9925 25.8408 17.13143 24.5133 17.30224 L 24.5133 18.70124 C 25.8749 18.49628 27.1351 18.36055 28.2244 18.42887 L 28.25844 17.06077 Z M 38.5714 17.40438 L 38.5714 18.83738 L 38.53736 18.83738 C 39.45644 18.97401 40.41016 19.1125 41.39726 19.21499 L 41.36322 17.81289 C 40.44414 17.71041 39.55862 17.57501 38.70762 17.43838 C 38.67358 17.43838 38.63951 17.4385 38.57143 17.40432 Z M 23.4914 17.43843 C 23.38928 17.43843 23.32115 17.47247 23.25307 17.47247 C 22.36803 17.6091 21.48247 17.7445 20.59747 17.84698 L 20.56341 19.24908 C 21.55057 19.1466 22.53831 19.00811 23.49141 18.87147 L 23.5595 18.87147 L 23.5595 17.43847 L 23.49141 17.43847 Z M 99.0064 81.40543 L 96.9946 81.63757 L 92.3952 81.67161 L 87.0097 81.63757 L 87.0097 84.85647 L 87.72468 84.85647 L 88.57584 82.56607 L 91.40484 82.50107 L 91.40484 93.55707 L 89.15464 93.7892 L 89.25678 94.42061 L 92.39528 94.35252 L 95.42538 94.42061 L 95.53062 93.7892 L 93.38262 93.55707 L 93.38262 82.50107 L 97.19892 82.56607 L 97.87985 82.46703 L 97.87985 93.65603 L 96.75635 93.82317 L 96.85849 94.45148 L 98.83629 94.38648 L 100.60669 94.45148 L 100.70882 93.82317 L 99.68742 93.65603 L 99.68742 88.24263 L 100.23216 87.91145 C 100.91379 87.47985 101.63056 87.08195 102.20996 87.08195 C 102.95975 87.08195 103.40156 87.48102 103.40156 88.44385 L 103.40156 93.65605 L 102.4823 93.82319 L 102.58443 94.4515 L 104.35483 94.3865 L 106.46883 94.42054 L 106.57097 93.78913 L 105.17507 93.62199 L 105.17507 88.77499 C 105.17507 86.45099 104.76585 85.58699 102.38017 85.58699 L 99.65337 87.31409 L 99.65337 81.40549 L 99.00648 81.40549 Z M 302.5764 81.47043 L 301.4498 81.77066 L 296.8164 93.58766 L 295.3493 93.78884 L 295.45135 94.42025 L 297.46315 94.35215 L 299.71335 94.42025 L 299.81557 93.78884 L 298.17827 93.5567 L 299.40707 90.1366 L 299.40707 90.17064 L 304.00647 90.17064 L 305.26617 93.58764 L 303.66597 93.82287 L 303.76802 94.45118 L 306.25652 94.38618 L 308.84712 94.45118 L 308.94918 93.82287 L 307.48208 93.62169 L 302.57628 81.46969 Z M 219.8584 81.5385 L 218.2923 83.2656 C 217.61067 83.99599 217.2709 84.7235 217.2709 85.8191 L 217.2709 85.98624 L 216.1783 85.98624 L 215.59952 86.61765 L 215.59952 86.91478 L 217.23682 86.91478 L 217.23682 93.65598 L 215.90592 93.82312 L 216.00797 94.45143 L 218.15597 94.38643 L 221.05307 94.45143 L 221.15528 93.75502 L 219.00728 93.62194 L 219.00728 86.88384 L 221.35958 86.88384 L 221.35958 86.0203 L 219.00728 86.0203 L 219.00728 85.55603 C 219.00728 84.36083 219.14325 83.82973 219.41584 83.49773 L 219.79035 82.99941 L 222.21075 82.99941 L 222.21075 81.53851 L 219.85845 81.53851 Z M 119.5184 81.63754 L 119.41627 82.26895 L 121.12167 82.50109 L 121.12167 89.90469 C 121.12167 92.82629 122.45197 94.75169 126.13267 94.75169 C 129.88157 93.88851 130.86827 92.32909 130.86827 89.93879 L 130.86827 82.50119 L 132.47157 82.26905 L 132.36944 81.63764 L 130.18734 81.70264 L 127.80094 81.63764 L 127.6988 82.26905 L 129.3361 82.46714 L 129.3361 90.10284 C 129.3361 92.46004 128.2455 93.72104 126.3029 93.72104 C 124.1558 93.72104 123.1675 92.42844 123.1675 90.17094 L 123.1675 82.50114 L 124.7677 82.269 L 124.66556 81.63759 L 122.10896 81.70259 L 119.51836 81.63759 Z M 227.2484 81.67158 L 227.2484 84.89048 L 227.9974 84.89048 L 228.84857 82.56598 L 231.67757 82.53503 L 231.67757 93.58803 L 229.43047 93.82326 L 229.5327 94.45157 L 232.6681 94.38657 L 235.7013 94.45157 L 235.7694 93.82326 L 233.6214 93.58803 L 233.6214 82.53503 L 236.4504 82.56598 L 237.30155 84.89048 L 238.01653 84.89048 L 238.01653 81.67158 L 232.63413 81.73658 L 227.24863 81.67158 Z M 146.1684 81.70253 L 144.8065 81.80467 L 144.63627 82.66512 L 144.7384 83.69582 L 145.2491 83.79486 L 146.5769 83.69582 L 146.78118 82.83228 L 146.67904 81.80468 L 146.16834 81.70254 Z M 184.9874 81.70253 L 183.6224 81.80467 L 183.45217 82.66512 L 183.55423 83.69582 L 184.06802 83.79486 L 185.39582 83.69582 L 185.6001 82.83228 L 185.49805 81.80468 L 184.98734 81.70255 Z M 336.5174 81.70253 L 335.1524 81.80467 L 334.98217 82.66512 L 335.08423 83.69582 L 335.59493 83.79486 L 336.92583 83.69582 L 337.1301 82.83228 L 337.0279 81.80468 L 336.5172 81.70254 Z M 301.7524 83.46363 L 301.88852 84.46027 L 303.66202 89.27317 L 299.67552 89.27317 L 301.75232 83.46357 Z M 190.1024 83.56267 L 188.8736 84.75737 L 188.8736 85.95207 L 187.6479 85.95207 L 187.00102 86.58348 L 187.00102 86.88371 L 188.80552 86.88371 L 188.80552 92.32811 C 188.80552 93.98811 189.07884 94.71751 191.19192 94.71751 L 193.54422 93.45781 L 193.2378 92.8264 C 192.7266 93.0588 192.1458 93.32472 191.6005 93.32472 C 190.81662 93.32472 190.61314 92.76023 190.61314 92.22902 L 190.61314 86.65162 L 193.44214 86.65162 L 196.57754 94.35232 L 197.32657 94.12018 L 195.45087 96.87488 L 193.85067 96.87488 L 193.85067 98.70098 L 193.85067 98.76907 L 196.10087 98.76907 L 198.21177 94.15417 L 201.24497 86.68247 L 202.43967 86.48438 L 202.33762 85.85297 L 200.76842 85.92106 L 199.13422 85.85297 L 199.032 86.48438 L 199.88317 86.68247 L 197.56487 93.29057 L 197.42874 92.02777 L 195.34884 86.68247 L 196.57764 86.48438 L 196.47558 85.85297 L 190.57938 85.85297 L 190.57938 83.56257 L 190.10273 83.56257 Z M 288.1874 83.56267 L 286.9586 84.75737 L 286.9586 85.95207 L 285.7329 85.95207 L 285.086 86.58348 L 285.086 86.88371 L 286.8905 86.88371 L 286.8905 92.32811 C 286.8905 93.98811 287.16383 94.71751 289.2769 94.71751 L 291.459 93.52281 L 291.1526 92.8914 C 290.6073 93.1238 290.19674 93.32472 289.6514 93.32472 C 288.86753 93.32472 288.66405 92.76024 288.66405 92.22902 L 288.66405 86.88372 L 291.49305 86.88372 L 291.49305 86.05422 L 288.66405 86.05422 L 288.66405 83.56262 L 288.18738 83.56262 Z M 329.4584 83.56267 L 328.2327 84.75737 L 328.2327 85.95207 L 327.007 85.95207 L 326.35702 86.58348 L 326.35702 86.88371 L 328.16462 86.88371 L 328.16462 92.32811 C 328.16462 93.98811 328.43793 94.71751 330.55102 94.71751 L 332.73002 93.52281 L 332.4236 92.8914 C 331.9124 93.1238 331.5049 93.32472 330.9596 93.32472 C 330.17573 93.32472 329.97225 92.76024 329.97225 92.22902 L 329.97225 86.88372 L 332.76405 86.88372 L 332.76405 86.05422 L 329.93815 86.05422 L 329.93815 83.56262 L 329.4584 83.56262 Z M 178.1784 85.48787 C 175.9972 85.95266 174.7707 86.68387 174.7707 87.94537 C 174.7707 88.97457 175.5189 89.67027 176.3368 90.06867 L 177.8039 90.83317 C 178.79225 91.33117 179.1658 91.66498 179.1658 92.36217 C 179.1658 93.12576 178.6561 93.75497 177.6677 93.75497 C 177.0883 93.75497 176.5415 93.5563 176.1325 93.2907 L 175.48562 91.7617 L 174.29092 91.7617 L 174.6345 93.8231 C 175.1457 94.0887 176.3356 94.6526 177.4944 94.6526 C 179.6415 94.18781 181.0074 93.5889 181.0074 91.9289 C 181.0074 90.8997 180.49486 90.2043 179.2339 89.5735 L 177.8039 88.874 C 176.98594 88.4756 176.507 88.11283 176.507 87.5152 C 176.507 86.85121 177.22434 86.4505 177.94 86.4505 C 178.6216 86.4505 179.1655 86.75017 179.37 86.84977 L 179.84664 88.14357 L 180.83708 88.14357 L 180.83708 86.31747 C 180.29178 85.91907 179.20078 85.48797 178.17838 85.48797 Z M 268.5594 85.48787 C 266.3782 85.95266 265.1517 86.68387 265.1517 87.94537 C 265.1517 88.97457 265.903 89.67027 266.7209 90.06867 L 268.1849 90.83317 C 269.17325 91.33117 269.5499 91.66498 269.5499 92.36217 C 269.5499 93.12576 269.03712 93.75497 268.0488 93.75497 C 267.4694 93.75497 266.9257 93.5563 266.5167 93.2907 L 265.8667 91.7617 L 264.6751 91.7617 L 265.01557 93.8231 C 265.52678 94.0887 266.75387 94.6526 267.87857 94.6526 C 270.02567 94.18781 271.38847 93.5889 271.38847 91.9289 C 271.38847 90.8997 270.87905 90.2043 269.61807 89.5735 L 268.18507 88.874 C 267.36712 88.4756 266.89127 88.11283 266.89127 87.5152 C 266.89127 86.85121 267.60552 86.4505 268.32127 86.4505 C 269.0029 86.4505 269.54987 86.75017 269.75427 86.84977 L 270.23092 88.14357 L 271.21828 88.14357 L 271.21828 86.31747 C 270.67298 85.91907 269.58198 85.48797 268.55958 85.48797 Z M 322.8854 85.48787 C 320.7042 85.95267 319.4776 86.68387 319.4776 87.94537 C 319.4776 88.97457 320.2289 89.67027 321.0468 90.06867 L 322.5108 90.83317 C 323.46506 91.33117 323.8758 91.66498 323.8758 92.36217 C 323.8758 93.12576 323.36302 93.75497 322.3747 93.75497 C 321.79533 93.75497 321.2516 93.5563 320.8426 93.2907 L 320.19262 91.7617 L 319.00102 91.7617 L 319.34148 93.8231 C 319.8527 94.08869 321.04568 94.6526 322.20448 94.6526 C 324.35158 94.1878 325.71438 93.5889 325.71438 91.9289 C 325.71438 90.8997 325.20495 90.2043 323.94398 89.5735 L 322.51098 88.874 C 321.69303 88.47561 321.21718 88.11283 321.21718 87.5152 C 321.21718 86.85121 321.93142 86.4505 322.64718 86.4505 C 323.3288 86.4505 323.90978 86.75017 324.08018 86.84977 L 324.55683 88.14357 L 325.5442 88.14357 L 325.5442 86.31747 C 324.9942 85.91947 323.9042 85.48747 322.8842 85.48747 Z M 111.6154 85.55596 C 109.0593 86.08716 107.3874 87.54666 107.3874 90.23586 C 107.3874 93.12426 109.434 94.68356 111.7175 94.68356 C 112.9103 94.38476 114.1029 93.8543 114.9891 93.25666 L 114.68268 92.56025 C 113.96698 92.99185 113.08018 93.32475 112.33038 93.32475 C 110.38778 93.32475 109.22908 91.86315 109.22908 89.77155 L 109.22908 89.73751 L 114.92108 89.73751 L 114.92108 88.97301 C 114.92108 87.08061 114.10339 85.55601 111.61548 85.55601 Z M 162.2924 85.55596 C 159.7363 86.08715 158.0676 87.54666 158.0676 90.23586 C 158.0676 93.12426 160.1111 94.68356 162.3946 94.68356 C 163.5874 94.38476 164.7832 93.8543 165.6693 93.25666 L 165.35979 92.56025 C 164.64407 92.99185 163.76039 93.32475 163.01059 93.32475 C 161.06799 93.32475 159.90929 91.86315 159.90929 89.77155 L 159.90929 89.73751 L 165.60129 89.73751 L 165.60129 88.97301 C 165.60129 87.08061 164.78052 85.55601 162.29259 85.55601 Z M 210.5854 85.55596 C 207.6885 86.05395 205.986 87.57926 205.986 90.33486 C 205.986 92.79166 207.6889 94.68356 210.1768 94.68356 C 213.0737 94.21876 214.7793 92.66106 214.7793 89.93876 C 214.7793 87.44876 213.1074 85.55606 210.5854 85.55606 Z M 241.4624 85.55596 C 238.9063 86.08715 237.2375 87.54666 237.2375 90.23586 C 237.2375 93.12426 239.247 94.68356 241.5305 94.68356 C 242.7233 94.38476 243.9191 93.8543 244.8052 93.25666 L 244.4957 92.56025 C 243.78 92.99185 242.8963 93.32475 242.1465 93.32475 C 240.2039 93.32475 239.0452 91.86315 239.0452 89.77155 L 239.0452 89.73751 L 244.7712 89.73751 L 244.7712 88.97301 C 244.7712 87.08061 243.95042 85.55601 241.4625 85.55601 Z M 259.6614 85.55596 L 256.2537 87.04786 L 256.2537 88.44376 L 257.857 88.44376 L 258.16342 86.98286 C 258.5724 86.81686 259.18432 86.65168 259.69552 86.65168 C 260.6839 86.65168 260.78812 87.31414 260.78812 88.40968 L 260.78812 89.30727 L 256.56012 90.66917 C 256.15115 91.23356 255.91324 91.69817 255.91324 92.36217 C 255.91324 93.82297 257.07224 94.68357 258.67404 94.68357 L 260.92424 93.09267 L 261.50302 94.48547 L 263.92342 94.0212 L 263.85522 93.38979 L 262.93598 93.38979 C 262.76554 93.09099 262.62645 92.82471 262.62645 92.02789 L 262.62645 88.44369 C 262.62645 86.15289 262.01293 85.55589 259.66135 85.55589 Z M 280.8944 85.55596 L 277.5548 87.04786 L 277.5548 88.44376 L 279.1581 88.44376 L 279.4645 86.98286 C 279.8735 86.81686 280.4854 86.65168 280.9966 86.65168 C 281.985 86.65168 282.0892 87.31414 282.0892 88.40968 L 282.0892 89.30727 L 277.8613 90.66917 C 277.4523 91.23356 277.2144 91.69817 277.2144 92.36217 C 277.2144 93.82297 278.3735 94.68357 279.9753 94.68357 L 282.1914 93.09267 L 282.7702 94.48547 L 285.1906 94.0212 L 285.1224 93.38979 L 284.16908 93.38979 C 283.99864 93.09099 283.85957 92.82472 283.85957 92.02789 L 283.85957 88.44369 C 283.85957 86.15289 283.24603 85.55589 280.89447 85.55589 Z M 138.6044 85.58691 L 135.8435 87.34801 L 135.74136 85.81901 L 134.92115 85.88711 L 132.67405 86.45043 L 132.77618 87.08184 L 134.06998 86.9828 L 134.06998 93.6559 L 132.77618 93.82304 L 132.87832 94.45135 L 135.02632 94.38635 L 136.83082 94.4854 L 136.93296 93.85399 L 135.91156 93.68995 L 135.91156 88.27655 L 136.4563 87.91132 C 137.10385 87.47973 137.7525 87.08182 138.4001 87.08182 C 139.18397 87.08182 139.6258 87.4809 139.6258 88.44372 L 139.6258 93.65592 L 138.6725 93.82306 L 138.77463 94.45137 L 140.57913 94.38637 L 142.72713 94.45137 L 142.82927 93.82306 L 141.39927 93.65592 L 141.39927 88.57682 C 141.39927 86.38562 140.99004 85.58692 138.60437 85.58692 Z M 345.0044 85.58691 L 342.2435 87.34801 L 342.14144 85.81901 L 341.32123 85.88711 L 339.07413 86.45043 L 339.1762 87.08184 L 340.47 86.9828 L 340.47 93.6559 L 339.1762 93.82304 L 339.2784 94.45135 L 341.4233 94.38635 L 343.1968 94.4854 L 343.29886 93.85399 L 342.27746 93.68995 L 342.27746 88.27655 L 342.85626 87.91132 C 343.5038 87.47972 344.14936 87.08182 344.79696 87.08182 C 345.5808 87.08182 346.02576 87.48089 346.02576 88.44372 L 346.02576 93.65592 L 345.07244 93.82306 L 345.17465 94.45137 L 346.97915 94.38637 L 349.12715 94.45137 L 349.2292 93.82306 L 347.7962 93.65592 L 347.7962 88.57682 C 347.7962 86.38562 347.39007 85.58692 345.0044 85.58692 Z M 171.9744 85.655 L 169.8264 88.2116 L 169.7583 85.7881 L 169.00927 85.8531 L 166.75907 86.41951 L 166.86113 87.04782 L 168.15493 86.94878 L 168.15493 93.62188 L 166.86113 93.78902 L 166.96334 94.42043 L 169.07734 94.35234 L 171.80414 94.42043 L 171.90635 93.72093 L 169.92855 93.55689 L 169.92855 89.20819 L 170.30307 88.77487 C 170.81428 88.17727 171.63357 87.58067 172.07657 87.48107 L 173.47247 87.48107 L 173.47247 85.65497 L 171.97447 85.65497 Z M 311.3944 85.78808 L 310.47516 85.85308 L 308.22496 86.31735 L 308.32717 87.01685 L 309.65807 86.91471 L 309.65807 91.69671 C 309.65807 93.82151 310.0672 94.68351 312.55517 94.68351 L 315.28197 93.02451 L 315.79267 94.51951 L 318.21307 94.05524 L 318.14497 93.42383 L 317.18858 93.42383 C 317.0523 93.12503 316.95024 92.85875 316.95024 92.06193 L 316.95024 85.78813 L 315.99694 85.85313 L 313.91704 86.3174 L 314.01926 87.0169 L 315.14586 86.91476 L 315.14586 92.06196 L 314.77134 92.2941 C 314.05564 92.75889 313.30484 93.22264 312.72544 93.22264 C 311.80526 93.22264 311.39454 92.82666 311.39454 91.86384 L 311.39454 85.78804 Z M 146.6144 85.81903 L 145.6611 85.88712 L 143.4109 86.45044 L 143.51304 87.08185 L 144.80994 86.9828 L 144.80994 93.6559 L 143.51304 93.82304 L 143.61517 94.45135 L 145.76317 94.38635 L 147.91117 94.45135 L 148.01331 93.82304 L 146.61431 93.6559 L 146.61431 85.819 Z M 148.1836 85.81903 L 148.08146 86.45044 L 149.23906 86.65162 L 152.51066 94.71752 L 153.87566 94.1542 L 156.94296 86.6516 L 158.13456 86.45042 L 158.03244 85.81901 L 156.46624 85.88712 L 154.82894 85.81903 L 154.7268 86.45044 L 155.57797 86.65162 L 153.29687 93.25662 L 153.22567 91.99692 L 151.18287 86.65162 L 152.40857 86.45044 L 152.30643 85.81903 L 150.33173 85.88712 L 148.18373 85.81903 Z M 185.3656 85.81903 L 184.44634 85.88712 L 182.19614 86.45044 L 182.29836 87.08185 L 183.59216 86.9828 L 183.59216 93.6559 L 182.29836 93.82304 L 182.4004 94.45135 L 184.5484 94.38635 L 186.6624 94.45135 L 186.76462 93.82304 L 185.36562 93.6559 L 185.36562 85.819 Z M 245.7236 85.81903 L 245.62155 86.48449 L 246.77915 86.68258 L 249.50595 90.30388 L 246.74505 93.62188 L 245.41725 93.78902 L 245.5193 94.42043 L 247.4599 94.35234 L 248.927 94.42043 L 249.02923 93.78902 L 248.10997 93.65594 L 250.08467 90.86724 L 250.2208 91.29746 L 251.8922 93.65596 L 251.10913 93.8231 L 251.21134 94.45141 L 252.98174 94.38641 L 255.12974 94.45141 L 255.2318 93.8231 L 254.0742 93.65596 L 251.1431 89.60446 L 253.6285 86.68266 L 254.9935 86.48457 L 254.89127 85.81911 L 252.94747 85.88721 L 251.48347 85.81911 L 251.3814 86.48457 L 252.30067 86.68266 L 250.52717 89.17426 L 250.39104 88.70999 L 248.99514 86.68269 L 249.74417 86.4846 L 249.64196 85.81914 L 247.87156 85.88724 L 245.72356 85.81914 Z M 336.8906 85.81903 L 335.97134 85.88712 L 333.72114 86.45044 L 333.8232 87.08185 L 335.117 86.9828 L 335.117 93.6559 L 333.8232 93.82304 L 333.92525 94.45135 L 336.07325 94.38635 L 338.18415 94.45135 L 338.28636 93.82304 L 336.89046 93.6559 L 336.89046 85.819 Z M 111.2406 86.45045 C 112.7061 86.45045 112.977 87.44861 112.977 88.84295 L 109.2288 89.00699 C 109.36514 87.47979 110.08189 86.45039 111.2406 86.45039 Z M 161.9516 86.45045 C 163.4171 86.45045 163.6911 87.44861 163.6911 88.84295 L 159.9429 89.00699 C 160.07919 87.47979 160.7929 86.45039 161.9517 86.45039 Z M 210.1766 86.45045 C 211.7784 86.45045 212.9375 88.01085 212.9375 90.33485 C 212.9375 92.29365 212.15286 93.78905 210.6533 93.78905 C 208.9833 93.78905 207.8584 92.03025 207.8924 89.93865 C 207.8924 87.94665 208.64297 86.45045 210.1766 86.45045 Z M 241.0536 86.45045 C 242.5191 86.45045 242.7931 87.44861 242.7931 88.84295 L 239.0449 89.00699 C 239.1812 87.47979 239.92895 86.45039 241.0536 86.45039 Z M 260.8226 90.03775 L 260.8226 92.42715 L 260.03953 92.95951 C 259.80097 93.12551 259.32197 93.42378 258.81073 93.42378 C 258.26543 93.42378 257.72123 93.09055 257.72123 92.16098 C 257.72123 91.76258 257.82313 91.39899 258.09574 91.13338 L 260.82254 90.03768 Z M 282.0556 90.03775 L 282.0556 92.42715 L 281.27253 92.95951 C 281.03397 93.12551 280.55498 93.42378 280.04373 93.42378 C 279.49843 93.42378 278.95423 93.09055 278.95423 92.16098 C 278.95423 91.76258 279.05613 91.39898 279.32875 91.13338 L 282.05555 90.03768 Z" fill="#bf5700"/>
        </g>
      </g>
    </g>
  </g>
</svg>
